# Blender v2.93.2 OBJ File: 'FANTASY_HOUSE.blend'
# www.blender.org
mtllib FANTASY_HOUSEP_obj.mtl
o BASE.001_Cube:001_Cube.001
v 2.003263 0.019716 1.086657
v 1.895917 0.572789 0.883994
v -1.265144 1.342852 1.086657
v -1.465687 0.019716 1.729325
v 1.541282 0.978877 -0.261434
v -1.265144 2.019716 -0.261434
v -1.265144 2.019716 0.434748
v 1.568188 0.978877 0.434748
v 1.895917 0.572789 -0.710680
v -1.265144 1.342852 -0.913343
v -1.465687 0.019716 -1.556011
v 2.003263 0.019716 -0.913343
v -1.129621 1.461551 -0.750816
v -1.220792 3.457626 0.094110
v 0.480638 1.284805 0.049334
v -1.121126 1.452154 0.922706
v 0.186115 0.016019 2.115039
v 0.071263 0.728711 2.115039
v 0.071263 0.738998 2.064245
v 0.186115 0.016019 2.064245
v 0.122057 0.737226 2.064245
v 0.236910 0.016019 2.064245
v 0.122057 0.731014 2.115039
v 0.236910 0.016019 2.115039
v 1.358086 0.016019 2.115039
v 1.472939 0.672807 2.115039
v 1.472939 0.677580 2.064245
v 1.358086 0.016019 2.064245
v 1.422144 0.679366 2.064245
v 1.307292 0.016019 2.064245
v 1.422144 0.672807 2.115039
v 1.307292 0.016019 2.115039
v -0.907352 -0.013322 -2.007533
v -0.911007 -0.011367 -1.956908
v -1.024583 0.722856 -1.992312
v -1.020928 0.709586 -2.042937
v -0.860344 -0.011297 -1.953253
v -0.973920 0.717755 -1.988657
v -0.856689 -0.013252 -2.003878
v -0.970265 0.708355 -2.039282
v -0.123546 -0.011696 -2.188699
v -0.127201 -0.009741 -2.138074
v -0.011736 0.674535 -2.155092
v -0.008081 0.664998 -2.205717
v -0.177864 -0.009812 -2.141729
v -0.062398 0.646649 -2.158747
v -0.174209 -0.011767 -2.192354
v -0.058743 0.664927 -2.209372
v 0.459485 0.016945 2.114999
v 1.328781 0.016945 2.090142
v 1.375257 0.260690 2.091594
v 0.459485 0.260689 2.114999
v 1.311314 0.016945 1.033560
v 1.345407 0.016945 2.100095
v 1.339612 0.260690 1.023798
v -1.591441 2.449652 0.080206
v -1.591441 2.749884 0.080206
v -1.591441 2.749884 0.067372
v -1.591441 2.449652 0.067372
v -1.578607 2.749884 0.067372
v -1.578607 2.449652 0.067372
v -1.578607 2.749884 0.080206
v -1.578607 2.449652 0.080206
v -1.588489 0.941750 -0.989187
v -1.588489 1.143949 -0.989187
v -1.588489 1.143949 -0.996118
v -1.588489 0.941750 -0.996118
v -1.581559 1.143949 -0.996118
v -1.581559 0.941750 -0.996118
v -1.581559 1.143949 -0.989187
v -1.581559 0.941750 -0.989187
v -1.517912 0.020120 0.763897
v -1.459278 0.296639 0.719048
v -1.459278 0.296639 0.532227
v -1.517912 0.020120 0.487378
v -1.401058 0.296639 0.532227
v -1.419606 0.020120 0.487378
v -1.419606 0.020120 0.763897
v -1.401058 0.296639 0.719048
v -1.517912 0.020120 -0.302588
v -1.459278 0.296639 -0.347437
v -1.459278 0.296639 -0.534258
v -1.517912 0.020120 -0.579107
v -1.393694 0.296639 -0.534258
v -1.421663 0.020120 -0.579107
v -1.421663 0.020120 -0.302588
v -1.393694 0.296639 -0.347437
v 1.385135 0.775312 1.381381
v 1.507463 0.670650 2.120905
v 0.009050 0.729213 2.172584
v 0.247451 0.855878 1.334381
v 1.273114 0.937739 0.593868
v 0.389991 0.980031 0.847306
v 0.002446 0.775312 -1.612440
v 0.036292 0.642432 -2.340424
v -1.093101 0.696882 -2.105080
v -0.774224 0.856049 -1.471003
v 0.044118 1.072424 -0.774209
v -0.477671 1.162796 -0.809066
v -1.670502 2.407228 0.070747
v -1.652973 2.462685 0.070744
v -1.652973 2.435845 -0.018749
v -1.670502 2.387918 -0.009730
v -1.548526 2.441245 0.006921
v -1.528386 2.343780 0.020153
v -1.521302 2.350221 0.070743
v -1.548526 2.460385 0.070740
v -1.548526 2.441245 0.134527
v -1.528386 2.344331 0.121295
v -1.652973 2.435845 0.160190
v -1.670502 2.387918 0.151171
v -1.694903 2.276744 0.070739
v -1.681315 2.275973 0.070736
v -1.680250 2.275973 0.125838
v -1.694903 2.276744 0.120168
v -1.628272 2.326239 0.138205
v -1.657885 2.333441 0.137193
v -1.628272 2.326239 0.070743
v -1.694903 2.276744 0.021268
v -1.657885 2.333441 0.004248
v -1.628272 2.326239 0.003231
v -1.680862 2.275973 0.015591
v -1.657885 2.333441 0.070738
v -1.379620 1.998626 0.086657
v -1.439348 2.036200 -0.355068
v -1.439348 1.610447 -0.371618
v -1.379620 1.287067 0.086657
v -1.439348 2.036200 0.518152
v -1.439348 1.610447 0.544932
v 0.726342 0.002375 1.911337
v 0.731790 0.294641 1.929721
v 0.474923 0.294641 1.790298
v 0.493307 0.002375 1.784850
v 0.614346 0.294641 1.533431
v 0.619794 0.002375 1.551815
v 0.871213 0.294641 1.672854
v 0.852829 0.002375 1.678302
v 1.368422 0.585313 -1.222099
v 1.357315 0.666089 -1.202744
v 1.373232 0.738889 -1.298247
v 1.366955 0.616407 -1.322897
v 1.458972 0.737465 -1.295962
v 1.456214 0.614925 -1.320518
v 1.448566 0.583982 -1.219963
v 1.460547 0.664374 -1.199992
v 1.445669 0.585332 -0.835517
v 1.446898 0.463386 -0.811548
v 1.334814 0.465248 -0.814536
v 1.342436 0.587047 -0.838268
v 1.478513 1.004816 -1.246301
v 1.463313 0.937762 -1.133436
v 1.360081 0.939476 -1.136187
v 1.353683 1.006889 -1.249628
v -1.250812 1.074062 -0.811657
v -1.682941 1.200685 -1.085561
v -1.695003 1.211085 -1.060882
v -1.256434 1.078909 -0.800157
v -1.709036 1.188956 -1.047612
v -1.262973 1.068597 -0.793973
v -1.705646 1.164878 -1.064090
v -1.261394 1.057376 -0.801652
v -1.689519 1.172127 -1.087544
v -1.253878 1.060754 -0.812581
v -1.219283 1.235164 0.789437
v -1.955701 1.415661 0.895426
v -1.939611 1.440384 0.951926
v -1.214268 1.242869 0.807047
v -1.941766 1.393647 0.995209
v -1.214939 1.228303 0.820537
v -1.959186 1.340039 0.965459
v -1.220369 1.211594 0.811265
v -1.967800 1.353645 0.903790
v -1.223053 1.215835 0.792044
v -1.616505 0.866442 -0.966207
v -1.602099 0.963374 -0.979311
v -1.602099 0.963374 -1.006528
v -1.616505 0.866442 -1.022237
v -1.574882 0.963374 -1.006528
v -1.560475 0.866442 -1.022237
v -1.574882 0.963374 -0.979311
v -1.560475 0.866442 -0.966207
v 1.819440 1.165031 0.688313
v 1.591571 0.841110 0.324102
v 1.657811 0.815838 0.312687
v 1.261135 1.248433 -0.781340
v 1.174072 0.916386 -0.367017
v 1.228124 0.950861 -0.334667
v 1.244006 0.900711 -0.371521
v 1.640253 0.867049 0.278125
v -1.513868 2.108808 -0.639314
v -1.445797 2.085991 -0.431612
v -1.457478 2.020608 -0.460446
v -1.445797 2.085991 0.585132
v -1.513868 2.108808 0.792833
v -1.481909 2.085991 0.570503
v -1.181691 1.970030 -0.064008
v -1.174642 1.933216 -0.046609
v -1.457478 2.020608 0.613966
v -1.493590 2.020608 0.599336
v -1.493590 2.020608 -0.445817
v -1.481909 2.085991 -0.416983
v -1.181691 1.970030 0.217528
v -1.217803 1.960039 0.202899
v -1.210754 1.933216 -0.031980
v -1.217803 1.960039 -0.049379
v -1.174642 1.933216 0.200129
v -1.210754 1.933216 0.185500
v -1.530967 1.383743 0.582879
v -1.793151 1.576159 0.741466
v -1.505131 1.452878 0.598292
v -1.250435 1.350764 0.433833
v -1.225910 1.456267 0.473920
v -1.501639 1.380445 0.631584
v -1.192714 1.346903 0.531644
v -1.675735 2.777556 0.026049
v -2.002717 3.208136 0.088926
v -1.614612 2.865778 0.062732
v -1.149874 2.564897 -0.012716
v -1.085139 2.710153 0.057271
v -1.666691 2.768895 0.110798
v -1.131785 2.551964 0.156784
v -1.503257 1.410683 -0.437277
v -1.792420 1.603099 -0.538641
v -1.498709 1.479818 -0.407539
v -1.209779 1.377704 -0.315687
v -1.225101 1.483207 -0.271261
v -1.522170 1.407385 -0.383663
v -1.248512 1.373843 -0.208923
vt 0.966691 0.237495
vt 0.966691 0.342752
vt 0.959264 0.342752
vt 0.959264 0.237495
vt 0.951909 0.342752
vt 0.951909 0.237495
vt 0.981413 0.237495
vt 0.981413 0.342752
vt 0.974046 0.342752
vt 0.974046 0.237495
vt 0.971505 0.448045
vt 0.978854 0.448041
vt 0.978810 0.350888
vt 0.971460 0.351572
vt 0.986096 0.449295
vt 0.986096 0.351888
vt 0.956917 0.449318
vt 0.964266 0.449314
vt 0.964221 0.352842
vt 0.956869 0.351910
vt 0.956871 0.136453
vt 0.956869 0.010623
vt 0.992139 0.003906
vt 0.992139 0.136452
vt 0.944517 0.005187
vt 0.909008 0.003906
vt 0.908982 0.158492
vt 0.944517 0.159583
vt 0.725934 0.047347
vt 0.725934 0.003906
vt 0.727791 0.003906
vt 0.727791 0.047347
vt 0.729648 0.003906
vt 0.729648 0.047347
vt 0.722220 0.047347
vt 0.722220 0.003906
vt 0.724077 0.003906
vt 0.724077 0.047347
vt 0.442692 0.003906
vt 0.442692 0.033162
vt 0.441689 0.033162
vt 0.441689 0.003906
vt 0.440686 0.033162
vt 0.440686 0.003906
vt 0.439683 0.033162
vt 0.439683 0.003906
vt 0.443694 0.003906
vt 0.443694 0.033162
vt 0.779704 0.489167
vt 0.740060 0.480401
vt 0.738405 0.455312
vt 0.779704 0.445347
vt 0.731798 0.451241
vt 0.771902 0.431801
vt 0.772240 0.502951
vt 0.732985 0.484794
vt 0.292145 0.061375
vt 0.252603 0.052375
vt 0.250835 0.027492
vt 0.292145 0.017239
vt 0.243344 0.023003
vt 0.284332 0.003906
vt 0.284690 0.074970
vt 0.244519 0.057228
vt 0.193596 0.875285
vt 0.354739 0.839064
vt 0.354937 0.711649
vt 0.147569 0.775920
vt 0.240688 0.982900
vt 0.354937 0.914659
vt 0.477993 0.048201
vt 0.520327 0.046240
vt 0.520327 0.088528
vt 0.477993 0.086566
vt 0.522288 0.130861
vt 0.562615 0.088528
vt 0.560653 0.130861
vt 0.604948 0.086566
vt 0.562615 0.046240
vt 0.604948 0.048201
vt 0.560653 0.003906
vt 0.522289 0.003906
vt 0.560653 0.169225
vt 0.522288 0.169225
vt 0.323976 0.004616
vt 0.318253 0.080661
vt 0.314020 0.080279
vt 0.322003 0.004438
vt 0.309801 0.079771
vt 0.320037 0.004201
vt 0.305598 0.079138
vt 0.318079 0.003906
vt 0.321059 0.084917
vt 0.322495 0.080917
vt 0.326743 0.081046
vt 0.327932 0.085126
vt 0.327932 0.004795
vt 0.325953 0.004735
vt 0.324420 0.087518
vt 0.009635 0.129048
vt 0.024690 0.019303
vt 0.033787 0.020817
vt 0.012470 0.129520
vt 0.042782 0.022851
vt 0.015273 0.130154
vt 0.051646 0.025396
vt 0.018036 0.130947
vt 0.018809 0.009695
vt 0.015521 0.018312
vt 0.006311 0.017847
vt 0.003906 0.008944
vt 0.003906 0.128594
vt 0.006777 0.128739
vt 0.011630 0.003906
vt 0.201852 0.024863
vt 0.191420 0.034651
vt 0.188368 0.032161
vt 0.195570 0.019738
vt 0.185879 0.009141
vt 0.188368 0.006090
vt 0.200695 0.013456
vt 0.211420 0.003906
vt 0.214471 0.006396
vt 0.206977 0.018581
vt 0.216625 0.029143
vt 0.214136 0.032194
vt 0.185879 0.035213
vt 0.188930 0.037702
vt 0.573768 0.173792
vt 0.593264 0.098422
vt 0.603112 0.101734
vt 0.679121 0.081711
vt 0.689491 0.004554
vt 0.699664 0.006667
vt 0.708465 0.009652
vt 0.583045 0.096543
vt 0.679121 0.003906
vt 0.573768 0.095988
vt 0.348697 0.011744
vt 0.365979 0.039473
vt 0.355699 0.040955
vt 0.914547 0.420045
vt 0.908982 0.419605
vt 0.910936 0.451452
vt 0.380816 0.105604
vt 0.377232 0.110362
vt 0.914955 0.452391
vt 0.929805 0.425492
vt 0.924365 0.423948
vt 0.371913 0.003906
vt 0.380989 0.033502
vt 0.371091 0.036985
vt 0.926602 0.353503
vt 0.920816 0.353405
vt 0.389955 0.106326
vt 0.386173 0.103468
vt 0.386597 0.034422
vt 0.395579 0.106841
vt 0.395579 0.005612
vt 0.350049 0.011893
vt 0.937059 0.352156
vt 0.931726 0.350448
vt 0.940122 0.423217
vt 0.940122 0.355740
vt 0.937866 0.455362
vt 0.912888 0.451688
vt 0.545125 0.190078
vt 0.504492 0.266589
vt 0.035556 0.215956
vt 0.069823 0.003906
vt 0.438152 0.443824
vt 0.005093 0.448917
vt 0.003906 0.348194
vt 0.440617 0.343048
vt 0.508160 0.517372
vt 0.040694 0.580146
vt 0.080402 0.791245
vt 0.550723 0.592826
vt 0.516160 0.278092
vt 0.597677 0.248769
vt 0.597677 0.538148
vt 0.516160 0.508825
vt 0.607290 0.291949
vt 0.607290 0.191218
vt 0.705225 0.096894
vt 0.705225 0.386273
vt 0.898856 0.003906
vt 0.898856 0.479261
vt 0.875291 0.817045
vt 0.564191 0.858864
vt 0.828834 0.559785
vt 0.564191 0.544570
vt 0.367852 0.681800
vt 0.591146 0.902416
vt 0.367852 0.996094
vt 0.923606 0.342438
vt 0.916135 0.342438
vt 0.916135 0.235849
vt 0.923606 0.235849
vt 0.908776 0.342438
vt 0.908776 0.235849
vt 0.938346 0.342438
vt 0.930956 0.342438
vt 0.930956 0.235849
vt 0.938346 0.235849
vt 0.100596 0.951485
vt 0.176964 0.886132
vt 0.172965 0.879751
vt 0.095788 0.945854
vt 0.164380 0.878182
vt 0.090104 0.941109
vt 0.090104 0.815451
vt 0.170509 0.874086
vt 0.094866 0.809779
vt 0.176340 0.870088
vt 0.100553 0.804985
vt 0.990656 0.865084
vt 0.995986 0.972135
vt 0.832362 0.938196
vt 0.877917 0.843323
vt 0.995986 0.736376
vt 0.919203 0.737118
vt 0.956905 0.207407
vt 0.954605 0.216517
vt 0.947606 0.210746
vt 0.946796 0.204575
vt 0.938742 0.222668
vt 0.928137 0.208667
vt 0.968483 0.160707
vt 0.972666 0.143994
vt 0.981514 0.149226
vt 0.975773 0.163519
vt 0.981514 0.222282
vt 0.965577 0.229473
vt 0.963501 0.214752
vt 0.967153 0.209704
vt 0.961378 0.189577
vt 0.961860 0.187629
vt 0.970380 0.189722
vt 0.969234 0.191813
vt 0.951548 0.228482
vt 0.971470 0.193210
vt 0.974892 0.206360
vt 0.970156 0.203398
vt 0.964512 0.176856
vt 0.974593 0.179276
vt 0.953393 0.187857
vt 0.947133 0.197601
vt 0.941562 0.197956
vt 0.950859 0.188020
vt 0.959036 0.198956
vt 0.954450 0.174322
vt 0.960702 0.159833
vt 0.953321 0.185575
vt 0.962392 0.144439
vt 0.856954 0.553450
vt 0.851516 0.488955
vt 0.913119 0.486580
vt 0.959909 0.553448
vt 0.851516 0.616478
vt 0.913121 0.620317
vt 0.665567 0.457972
vt 0.653603 0.463547
vt 0.646489 0.445954
vt 0.659571 0.444160
vt 0.651710 0.427329
vt 0.662930 0.421821
vt 0.670305 0.438282
vt 0.676252 0.451815
vt 0.686565 0.444709
vt 0.721616 0.484867
vt 0.713787 0.500863
vt 0.700779 0.510079
vt 0.643683 0.475923
vt 0.683116 0.511706
vt 0.671036 0.519216
vt 0.684151 0.427368
vt 0.716583 0.404151
vt 0.721616 0.422821
vt 0.611474 0.452217
vt 0.610259 0.432993
vt 0.631255 0.392984
vt 0.647678 0.384979
vt 0.607290 0.465385
vt 0.635465 0.052307
vt 0.618033 0.003906
vt 0.644905 0.047410
vt 0.651629 0.094569
vt 0.666773 0.087145
vt 0.616867 0.054920
vt 0.628001 0.055443
vt 0.616867 0.100305
vt 0.635975 0.101168
vt 0.032278 0.761404
vt 0.009207 0.688051
vt 0.047007 0.755561
vt 0.056192 0.838303
vt 0.080373 0.830533
vt 0.003906 0.765022
vt 0.020839 0.765576
vt 0.003906 0.846855
vt 0.032086 0.846976
vt 0.424759 0.052307
vt 0.407327 0.003906
vt 0.434199 0.047409
vt 0.440924 0.094568
vt 0.456068 0.087144
vt 0.406162 0.054920
vt 0.417295 0.055443
vt 0.406162 0.100305
vt 0.425270 0.101168
vn -0.9873 -0.1580 -0.0160
vn 0.0000 0.0000 -1.0000
vn 0.9874 0.1579 0.0097
vn 0.0000 0.0000 1.0000
vn 0.9851 -0.1716 -0.0081
vn -0.9851 0.1714 0.0111
vn 0.0270 -0.0056 0.9996
vn 0.9923 -0.1196 -0.0324
vn -1.0000 0.0000 0.0000
vn 1.0000 -0.0000 0.0000
vn -0.9782 0.2074 0.0000
vn 0.0000 0.1601 -0.9871
vn 0.0000 0.1601 0.9871
vn 0.0000 1.0000 0.0000
vn 0.0524 0.9875 0.1486
vn 0.0816 0.9720 0.2205
vn -0.4765 -0.0463 0.8779
vn -0.8779 -0.0463 -0.4765
vn 0.4765 -0.0463 -0.8779
vn 0.8779 -0.0463 0.4765
vn 0.0000 -1.0000 -0.0000
vn 0.3859 0.9024 -0.1917
vn -0.2594 0.6124 0.7468
vn -0.5227 -0.5304 0.6675
vn -0.8338 0.2270 -0.5032
vn -0.0400 -0.9466 -0.3201
vn 0.5215 -0.0610 -0.8510
vn 0.1554 0.8880 -0.4328
vn 0.3141 0.6373 0.7037
vn 0.0911 -0.5057 0.8579
vn -0.9604 0.2117 0.1809
vn -0.2054 -0.9613 -0.1834
vn -0.1657 -0.1000 -0.9811
vn -0.9604 0.2118 0.1808
vn -0.9891 0.1470 0.0000
vn 0.0000 0.1600 -0.9871
vn 0.9891 0.1470 0.0000
vn 0.0000 0.1340 0.9910
vn -0.1429 -0.6935 0.7062
vn -0.6493 0.6542 0.3878
vn 0.9678 0.1705 0.1851
vn -0.6316 0.7319 -0.2558
vn -0.2073 -0.7417 -0.6379
vn 0.9080 0.0293 -0.4179
vn 0.9488 -0.0309 -0.3143
vn 0.0391 0.9946 -0.0965
vn 0.8222 0.0264 -0.5686
vn -0.1602 -0.9044 0.3955
vn -0.9824 0.1083 0.1523
vn -0.0037 0.9491 -0.3150
vn -0.8226 -0.0291 0.5678
vn -0.0660 -0.9844 -0.1628
vn -0.0037 0.9491 0.3150
vn -0.1602 -0.9044 -0.3955
vn 0.0391 0.9946 0.0965
vn -0.0660 -0.9844 0.1628
vn -0.8226 -0.0291 -0.5678
vn -0.9824 0.1083 -0.1523
vn 0.8222 0.0264 0.5686
vn 0.9488 -0.0309 0.3144
vn 0.1614 0.3987 0.9028
vn 0.1920 0.5187 0.8331
vn 0.2084 0.5854 0.7835
vn 0.6103 0.7922 -0.0083
vn 0.3463 0.9381 -0.0067
vn 0.6178 0.7863 -0.0083
vn 0.2413 0.7268 0.6430
vn 0.2431 0.7296 -0.6392
vn 0.1920 0.5172 -0.8340
vn 0.2094 0.5871 -0.7819
vn 0.1614 0.3987 -0.9028
vn 0.9404 0.3401 -0.0029
vn 0.9817 0.1905 0.0000
vn 0.9397 0.3420 -0.0029
vn -0.9942 0.1074 0.0000
vn -0.9887 0.1499 0.0000
vn 0.4460 0.3661 -0.8167
vn 0.4758 0.3560 0.8043
vn -0.9989 -0.0477 0.0048
vn -0.9866 -0.1561 -0.0478
vn -0.0701 0.0374 0.9968
vn 0.9861 0.1570 0.0536
vn 0.0715 -0.0376 -0.9967
vn 0.9823 -0.1644 0.0896
vn -0.0827 0.0395 0.9958
vn -0.9846 0.1694 -0.0438
vn 0.0720 -0.0373 -0.9967
vn -0.2697 0.9609 0.0635
vn 0.0543 0.9547 -0.2927
vn 0.0268 0.9763 -0.2149
vn 0.0539 0.9550 -0.2916
vn 0.0889 0.9169 -0.3891
vn -0.9948 0.1016 0.0000
vn -0.9493 0.3145 0.0000
vn -0.9458 0.3133 -0.0851
vn -0.9977 0.0610 -0.0305
vn 0.1700 -0.1342 -0.9763
vn 0.1958 -0.1449 -0.9699
vn 0.1757 -0.1366 -0.9749
vn 0.9764 0.2161 -0.0008
vn 0.9764 0.2161 -0.0004
vn 0.9707 0.2152 0.1072
vn 0.1759 -0.1369 0.9748
vn 0.1959 -0.1454 0.9698
vn 0.1702 -0.1344 0.9762
vn -0.0552 -0.9985 0.0002
vn -0.0546 -0.9985 0.0006
vn 0.0211 0.9576 0.2873
vn -0.1703 -0.1268 0.9772
vn 0.0488 -0.1211 0.9914
vn -0.0160 -0.1234 0.9922
vn 0.6907 -0.7231 -0.0017
vn 0.6919 -0.7220 -0.0060
vn -0.1725 -0.1239 -0.9772
vn -0.0173 -0.1221 -0.9924
vn 0.0483 -0.1205 -0.9915
vn -0.8373 0.5467 0.0000
vn 0.1950 -0.9808 0.0024
vn 0.1950 -0.9808 0.0023
vn 0.1963 -0.9798 -0.0371
vn -0.9817 -0.1904 -0.0000
vn -0.9814 -0.1904 0.0250
vn -0.9814 -0.1903 -0.0250
vn -0.9977 0.0610 0.0305
vn 0.1933 -0.9802 0.0419
vn 0.6896 -0.7242 0.0025
vn 0.0211 0.9576 -0.2872
vn -0.0558 -0.9984 -0.0002
vn 0.9707 0.2145 -0.1081
vn -0.9458 0.3133 0.0851
vn -1.0000 -0.0025 -0.0006
vn -0.9914 -0.0019 0.1308
vn -1.0000 -0.0025 -0.0005
vn -0.9913 -0.0031 -0.1318
vn -0.9973 -0.0130 -0.0721
vn -0.9975 -0.0138 -0.0691
vn -0.9978 -0.0145 -0.0648
vn -0.9970 -0.0070 -0.0771
vn 0.0294 0.1958 -0.9802
vn 0.0293 0.1880 -0.9817
vn 0.9981 -0.0616 0.0007
vn 0.9982 -0.0593 0.0078
vn 0.9986 -0.0529 0.0077
vn -0.0082 -0.9573 -0.2889
vn -0.0082 -0.9573 -0.2890
vn -0.0084 -0.9590 -0.2832
vn 0.0106 0.9771 0.2123
vn 0.9982 -0.0563 0.0188
vn 0.9983 -0.0482 0.0328
vn -0.0080 -0.9556 -0.2947
vn 0.9975 -0.0710 -0.0067
vn -0.9975 -0.0186 -0.0675
vn -0.9981 -0.0186 -0.0580
vn 0.0292 0.1805 -0.9831
vn -0.0298 -0.2362 0.9713
vn -0.3541 0.3507 -0.8670
vn -0.3105 0.3159 -0.8966
vn -0.3521 0.3491 -0.8684
vn -0.3899 0.3791 -0.8392
vn 0.4399 0.4265 0.7903
vn 0.5362 0.3737 0.7569
vn 0.4232 0.4348 0.7949
vn 0.3347 0.4750 0.8138
vn -0.2759 -0.9546 0.1119
vn -0.4804 -0.8458 0.2320
vn -0.3067 -0.9429 0.1298
vn -0.1061 -0.9943 0.0145
vn 0.1315 0.3257 -0.9363
vn 0.1758 0.2717 -0.9462
vn 0.1318 0.3253 -0.9364
vn 0.0913 0.3727 -0.9235
vn 0.2208 0.3744 0.9006
vn 0.3109 0.2830 0.9073
vn 0.2092 0.3854 0.8987
vn 0.1273 0.4593 0.8791
vn -0.7946 -0.6067 0.0228
vn -0.3749 -0.9263 -0.0387
vn 0.4436 0.3507 -0.8248
vn 0.4941 0.3159 -0.8100
vn 0.4459 0.3491 -0.8242
vn 0.3994 0.3791 -0.8347
vn -0.3298 0.4265 0.8422
vn -0.2427 0.3737 0.8952
vn -0.3440 0.4348 0.8322
vn -0.4149 0.4750 0.7761
vn -0.2619 -0.9546 -0.1417
vn -0.4846 -0.8458 -0.2230
vn -0.2952 -0.9429 -0.1540
vn -0.0787 -0.9943 -0.0727
usemtl BASE
s off
f 17/1/1 18/2/1 19/3/1 20/4/1
f 20/4/2 19/3/2 21/5/2 22/6/2
f 22/7/3 21/8/3 23/9/3 24/10/3
f 24/10/4 23/9/4 18/2/4 17/1/4
f 25/11/5 28/12/5 27/13/5 26/14/5
f 28/12/2 30/15/2 29/16/2 27/13/2
f 30/17/6 32/18/6 31/19/6 29/20/6
f 32/18/4 25/11/4 26/14/4 31/19/4
f 49/21/7 50/22/7 51/23/7 52/24/7
f 53/25/8 55/26/8 51/27/8 54/28/8
f 56/29/9 57/30/9 58/31/9 59/32/9
f 59/32/2 58/31/2 60/33/2 61/34/2
f 61/35/10 60/36/10 62/37/10 63/38/10
f 63/38/4 62/37/4 57/30/4 56/29/4
f 64/39/9 65/40/9 66/41/9 67/42/9
f 67/42/2 66/41/2 68/43/2 69/44/2
f 69/44/10 68/43/10 70/45/10 71/46/10
f 71/47/4 70/48/4 65/40/4 64/39/4
f 72/49/11 73/50/11 74/51/11 75/52/11
f 75/52/12 74/51/12 76/53/12 77/54/12
f 78/55/13 79/56/13 73/50/13 72/49/13
f 76/53/14 74/51/14 73/50/14 79/56/14
f 80/57/11 81/58/11 82/59/11 83/60/11
f 83/60/12 82/59/12 84/61/12 85/62/12
f 86/63/13 87/64/13 81/58/13 80/57/13
f 84/61/14 82/59/14 81/58/14 87/64/14
f 88/65/15 91/66/15 90/67/15 89/68/15
f 92/69/16 93/70/16 91/66/16 88/65/16
f 130/71/17 131/72/17 132/73/17 133/74/17
f 133/75/18 132/73/18 134/76/18 135/77/18
f 135/78/19 134/76/19 136/79/19 137/80/19
f 137/81/20 136/79/20 131/72/20 130/82/20
f 133/75/21 135/77/21 137/83/21 130/84/21
f 134/76/14 132/73/14 131/72/14 136/79/14
f 154/85/22 155/86/22 156/87/22 157/88/22
f 157/88/23 156/87/23 158/89/23 159/90/23
f 159/90/24 158/89/24 160/91/24 161/92/24
f 155/93/25 162/94/25 160/95/25 158/96/25
f 161/97/26 160/95/26 162/94/26 163/98/26
f 163/98/27 162/94/27 155/86/27 154/85/27
f 156/99/25 155/93/25 158/96/25
f 164/100/28 165/101/28 166/102/28 167/103/28
f 167/103/29 166/102/29 168/104/29 169/105/29
f 169/105/30 168/104/30 170/106/30 171/107/30
f 165/108/31 172/109/31 170/110/31 168/111/31
f 171/112/32 170/110/32 172/109/32 173/113/32
f 173/113/33 172/109/33 165/101/33 164/100/33
f 166/114/34 165/108/34 168/111/34
f 174/115/35 175/116/35 176/117/35 177/118/35
f 177/118/36 176/119/36 178/120/36 179/121/36
f 179/121/37 178/122/37 180/123/37 181/124/37
f 181/124/38 180/125/38 175/126/38 174/115/38
f 177/118/21 179/121/21 181/124/21 174/115/21
f 178/127/14 176/117/14 175/116/14 180/128/14
f 182/129/39 183/130/39 184/131/39
f 185/132/40 186/133/40 187/134/40
f 188/135/41 185/132/41 187/134/41
f 183/130/42 182/129/42 189/136/42
f 186/133/43 185/132/43 188/137/43
f 189/136/44 182/129/44 184/138/44
f 190/139/45 191/140/45 192/141/45
f 193/142/46 195/143/46 194/144/46
f 192/141/47 191/140/47 196/145/47 197/146/47
f 194/147/48 199/148/48 198/149/48
f 190/150/49 200/151/49 201/152/49
f 202/153/50 203/154/50 195/143/50 193/142/50
f 200/151/51 204/155/51 205/156/51 201/152/51
f 192/157/52 197/158/52 204/155/52 200/151/52
f 196/145/53 191/140/53 201/152/53 205/156/53
f 190/159/54 192/157/54 200/151/54
f 191/140/55 190/160/55 201/152/55
f 198/149/56 199/148/56 207/161/56 206/162/56
f 199/148/57 195/163/57 203/164/57 207/161/57
f 194/165/58 195/163/58 199/148/58
f 198/149/59 206/162/59 202/153/59 193/142/59
f 194/166/60 198/149/60 193/142/60
s 1
f 1/167/61 2/168/62 3/169/63 4/170/61
f 5/171/64 6/172/65 7/173/65 8/174/66
f 8/174/67 7/173/67 3/169/63 2/168/62
f 6/172/68 5/171/68 9/175/69 10/176/70
f 11/177/71 10/176/70 9/175/69 12/178/71
f 2/179/72 1/180/73 12/181/73 9/182/74
f 7/183/9 6/184/9 10/185/75 3/186/75
f 3/186/75 10/185/75 11/187/76 4/188/76
f 9/182/74 5/171/64 8/174/66 2/179/72
f 13/189/77 14/190/77 15/191/77
f 15/191/78 14/190/78 16/192/78
f 14/193/79 13/194/79 16/195/79
f 33/196/80 34/197/80 35/198/80 36/199/80
f 34/197/81 37/200/81 38/201/81 35/198/81
f 37/202/82 39/203/82 40/204/82 38/205/82
f 39/203/83 33/196/83 36/199/83 40/204/83
f 41/206/84 44/207/84 43/208/84 42/209/84
f 42/209/85 43/208/85 46/210/85 45/211/85
f 45/212/86 46/210/86 48/213/86 47/214/86
f 47/214/87 48/213/87 44/215/87 41/216/87
f 46/210/88 43/208/88 44/215/88 48/213/88
f 94/217/89 95/218/90 96/219/90 97/220/91
f 98/221/92 94/217/89 97/220/91 99/222/92
f 100/223/93 101/224/94 102/225/95 103/226/96
f 103/226/97 102/225/98 104/227/98 105/228/99
f 106/229/100 107/230/101 108/231/102 109/232/102
f 109/233/103 108/234/104 110/235/104 111/236/105
f 112/237/106 113/238/106 114/239/107 115/240/107
f 107/241/108 101/224/108 110/235/108 108/234/108
f 114/242/109 116/243/110 117/244/111 115/240/109
f 113/238/112 118/245/112 116/246/113 114/239/113
f 119/247/114 120/248/115 121/249/116 122/250/114
f 112/237/117 123/251/117 120/248/117 119/247/117
f 116/243/110 109/233/103 111/236/105 117/244/111
f 118/245/118 106/229/119 109/232/120 116/246/120
f 120/248/115 103/226/97 105/228/99 121/249/116
f 123/251/121 100/223/93 103/226/96 120/248/122
f 117/244/123 111/236/124 100/223/93 123/251/121
f 121/252/125 105/253/125 106/229/119 118/245/118
f 115/240/117 117/244/117 123/251/117 112/237/117
f 122/254/126 121/252/126 118/245/112 113/238/112
f 104/227/127 102/225/127 101/224/127 107/241/127
f 119/247/128 122/254/128 113/238/106 112/237/106
f 105/253/129 104/255/129 107/230/101 106/229/100
f 111/236/124 110/235/130 101/224/94 100/223/93
f 124/256/131 125/257/132 126/258/132 127/259/133
f 128/260/134 124/256/131 127/259/133 129/261/134
f 138/262/135 139/263/136 140/264/137 141/265/138
f 141/265/139 140/266/140 142/267/140 143/268/139
f 144/269/141 145/270/142 146/271/143 147/272/143
f 138/262/144 144/269/145 147/272/146 148/273/146
f 145/274/147 139/263/147 149/275/147 146/276/147
f 145/270/142 142/277/148 150/278/149 151/279/149
f 141/265/150 143/268/150 144/269/145 138/262/144
f 143/268/151 142/277/148 145/270/142 144/269/141
f 148/273/152 149/275/152 139/263/136 138/262/135
f 140/264/137 139/263/136 152/280/153 153/281/153
f 142/267/140 140/266/140 153/282/154 150/283/154
f 139/263/155 145/274/155 151/284/155 152/280/155
f 208/285/156 209/286/157 210/287/158
f 211/288/159 208/285/156 210/287/158 212/289/159
f 210/290/160 209/286/161 213/291/162
f 212/292/163 210/290/160 213/291/162 214/293/163
f 213/291/164 209/286/165 208/285/166
f 214/293/167 213/291/164 208/285/166 211/288/167
f 215/294/168 216/295/169 217/296/170
f 218/297/171 215/294/168 217/296/170 219/298/171
f 217/299/172 216/295/173 220/300/174
f 219/301/175 217/299/172 220/300/174 221/302/175
f 220/300/176 216/295/176 215/294/176
f 221/302/177 220/300/177 215/294/177 218/297/177
f 222/303/178 223/304/179 224/305/180
f 225/306/181 222/303/178 224/305/180 226/307/181
f 224/308/182 223/304/183 227/309/184
f 226/310/185 224/308/182 227/309/184 228/311/185
f 227/309/186 223/304/187 222/303/188
f 228/311/189 227/309/186 222/303/188 225/306/189
